<svg width="124" height="16" viewBox="0 0 124 16" fill="none" xmlns="http://www.w3.org/2000/svg">
<path d="M25.9248 8.54874L23.6148 10.9348V15.6619H21.375V0.00805664H23.6148V8.07152L31.2055 0.00805664H34.1533L27.4091 6.97168L34.2442 15.6537H31.4098L25.9248 8.54874Z" fill="white"/>
<path d="M45.8816 11.2871H38.7039L36.9904 15.6619H34.5896L41.0366 0.00805664H43.6273L50.0743 15.6701H47.6425L45.8816 11.2871ZM39.4986 9.27787H45.0724L42.2711 2.26099L39.4986 9.27787Z" fill="white"/>
<path d="M63.3477 15.6621L54.5927 2.89411V15.6621H52.3529V0.00830078H55.3462L63.4447 12.0165V0.00830078H65.6866V15.6703L63.3477 15.6621Z" fill="white"/>
<path d="M75.6237 2.00907V15.6619H73.3839V2.00907H67.965V0.00805664H81.0406V2.01727L75.6237 2.00907Z" fill="white"/>
<path d="M91.3121 11.2873H84.1282L82.4127 15.6621H80.0118L86.4588 0.00830078H89.0413L95.4862 15.6703H93.0668L91.3121 11.2873ZM84.9333 9.27812H90.507L87.6933 2.26124L84.9333 9.27812Z" fill="white"/>
<path d="M97.2039 10.3165V0.00830078H99.4211V10.2489C99.4211 12.635 100.771 13.9827 103.034 13.9827C105.297 13.9827 106.624 12.635 106.624 10.2489V0.00830078H108.86V10.3247C108.86 14.0113 106.323 16.0001 103.03 16.0001C99.737 16.0001 97.2039 14.0052 97.2039 10.3165Z" fill="white"/>
<path d="M118.579 2.00932V15.6621H116.339V2.00932H110.924V0.00830078H124V2.01751L118.579 2.00932Z" fill="white"/>
<path d="M15.7882 2.17306H3.10066L15.7882 12.8192V15.662L0 2.41884V0H15.7882V2.17306Z" fill="#DC4128"/>
</svg>
